<svg t="1619776704583" class="icon" viewBox="0 0 1024 1024" version="1.1" xmlns="http://www.w3.org/2000/svg" p-id="7362" width="200" height="200"><path d="M597.15584 517.20192c36.63872-26.50112 60.60032-69.48864 60.60032-118.05696 0-80.37376-65.3824-145.75616-145.75616-145.75616S366.24384 318.7712 366.24384 399.14496c0 48.56832 23.97184 91.5456 60.61056 118.05696-113.152 36.13696-195.33824 142.25408-195.33824 267.23328h40.96c0-132.07552 107.45856-239.53408 239.53408-239.53408s239.53408 107.45856 239.53408 239.53408h40.96c-0.01024-124.98944-82.19648-231.09632-195.34848-267.23328z m-189.952-118.05696c0-57.78432 47.01184-104.79616 104.79616-104.79616S616.79616 341.36064 616.79616 399.14496s-47.0016 104.79616-104.78592 104.79616-104.8064-47.01184-104.8064-104.79616z" fill="#e6e6e6" p-id="7363"></path><path d="M512 0c-282.76736 0-512 229.23264-512 512s229.23264 512 512 512 512-229.23264 512-512-229.2224-512-512-512z m0 983.04c-259.7376 0-471.04-211.31264-471.04-471.04 0-259.7376 211.3024-471.04 471.04-471.04s471.04 211.3024 471.04 471.04c0 259.72736-211.3024 471.04-471.04 471.04z" fill="#e6e6e6" p-id="7364"></path></svg>