<svg t="1619776441404" class="icon" viewBox="0 0 1024 1024" version="1.1" xmlns="http://www.w3.org/2000/svg" p-id="3860" width="200" height="200"><path d="M575.3 870.7H316.4c-15.5 0-28-12.5-28-28s12.5-28 28-28h258.9c15.5 0 28 12.5 28 28s-12.6 28-28 28z" fill="#e6e6e6" opacity=".5" p-id="3861"></path><path d="M233 793.3c-10.6 0-21-4.1-28.9-12.1-13-13-15.8-32.5-7-48.6l122-224.3c1.3-2.4 2.9-4.5 4.8-6.4l336.6-336.6c16-16 42-16 58 0L820 266.9c16 16 16 42 0 58L483.4 661.6c-1.9 1.9-4.1 3.5-6.4 4.8L252.6 788.3c-6.2 3.4-12.9 5-19.6 5z m133.2-254.6L270.3 715l176.3-95.8L769.9 296l-80.5-80.5-323.2 323.2z m97.4 103.1h0.1-0.1z" fill="#e6e6e6" p-id="3862"></path></svg>