<svg t="1619776663864" class="icon" viewBox="0 0 1024 1024" version="1.1" xmlns="http://www.w3.org/2000/svg" p-id="6509" width="200" height="200"><path d="M85.333333 236.288A108.714667 108.714667 0 0 1 194.474667 128h635.050666A108.714667 108.714667 0 0 1 938.666667 236.288v551.424A108.714667 108.714667 0 0 1 829.525333 896H194.474667A108.714667 108.714667 0 0 1 85.333333 787.712V236.288z m109.141334-49.194667c-27.392 0-49.621333 22.016-49.621334 49.194667v551.424c0 27.178667 22.229333 49.194667 49.621334 49.194667h635.050666c27.392 0 49.621333-22.016 49.621334-49.194667V236.288c0-27.178667-22.186667-49.194667-49.621334-49.194667H194.474667z m386.986666 167.381334c0-16.341333 13.312-29.568 29.781334-29.568h198.4c16.469333 0 29.781333 13.226667 29.781333 29.568a29.653333 29.653333 0 0 1-29.738667 29.525333h-198.442666a29.653333 29.653333 0 0 1-29.781334-29.525333z m0 157.525333c0-16.298667 13.312-29.525333 29.781334-29.525333h198.4c16.469333 0 29.781333 13.226667 29.781333 29.525333a29.653333 29.653333 0 0 1-29.738667 29.525333h-198.442666a29.653333 29.653333 0 0 1-29.781334-29.525333z m0 157.525333c0-16.298667 13.312-29.525333 29.781334-29.525333h198.4c16.469333 0 29.781333 13.226667 29.781333 29.525333a29.653333 29.653333 0 0 1-29.738667 29.568h-198.442666a29.653333 29.653333 0 0 1-29.781334-29.568z" p-id="6510" fill="#e6e6e6"></path><path d="M314.112 416a53.333333 53.333333 0 1 1 106.666667 0 53.333333 53.333333 0 0 1-106.666667 0zM367.445333 298.666667a117.333333 117.333333 0 0 0-90.538666 192 202.794667 202.794667 0 0 0-96.725334 103.765333 74.112 74.112 0 0 0 13.397334 78.933333c17.109333 19.328 43.093333 30.634667 70.186666 30.634667h207.317334c27.093333 0 53.077333-11.306667 70.186666-30.634667a74.112 74.112 0 0 0 13.397334-78.933333 202.666667 202.666667 0 0 0-96.725334-103.765333A117.333333 117.333333 0 0 0 367.445333 298.666667z m-53.077333 245.205333a138.666667 138.666667 0 0 1 181.162667 75.093333 10.538667 10.538667 0 0 1 0.896 6.229334 12.544 12.544 0 0 1-3.114667 5.802666 30.165333 30.165333 0 0 1-22.229333 9.002667H263.765333a30.165333 30.165333 0 0 1-22.186666-9.002667 12.586667 12.586667 0 0 1-3.157334-5.802666 10.538667 10.538667 0 0 1 0.896-6.272 138.666667 138.666667 0 0 1 75.050667-75.050667z" p-id="6511" fill="#e6e6e6"></path></svg>