<svg t="1619776618895" class="icon" viewBox="0 0 1028 1024" version="1.1" xmlns="http://www.w3.org/2000/svg" p-id="5625" width="200" height="200"><path d="M503.466667 550.4c53.333333 0 104.533333 10.666667 153.6 29.866667 23.466667 8.533333 44.8 21.333333 66.133333 34.133333 19.2 12.8 46.933333 6.4 59.733333-12.8 12.8-19.2 6.4-46.933333-12.8-59.733333-25.6-14.933333-51.2-29.866667-78.933333-40.533334-6.4-2.133333-12.8-4.266667-17.066667-6.4 66.133333-49.066667 108.8-128 108.8-215.466666 0-149.333333-121.6-273.066667-273.066666-273.066667S234.666667 128 234.666667 277.333333c0 87.466667 40.533333 164.266667 104.533333 213.333334C142.933333 558.933333 0 746.666667 0 966.4v42.666667h588.8c23.466667 0 42.666667-19.2 42.666667-42.666667s-19.2-42.666667-42.666667-42.666667H89.6c21.333333-211.2 198.4-373.333333 413.866667-373.333333z m4.266666-460.8c102.4 0 187.733333 83.2 187.733334 187.733333s-83.2 187.733333-187.733334 187.733334c-102.4 0-187.733333-83.2-187.733333-187.733334s83.2-187.733333 187.733333-187.733333zM915.2 842.666667l59.733333-59.733334c17.066667-17.066667 17.066667-42.666667 0-59.733333-17.066667-17.066667-42.666667-17.066667-59.733333 0l-59.733333 59.733333-59.733334-59.733333c-17.066667-17.066667-42.666667-17.066667-59.733333 0s-17.066667 42.666667 0 59.733333l59.733333 59.733334-59.733333 59.733333c-17.066667 17.066667-17.066667 42.666667 0 59.733333 17.066667 17.066667 42.666667 17.066667 59.733333 0l59.733334-59.733333 59.733333 59.733333c17.066667 17.066667 42.666667 17.066667 59.733333 0s17.066667-42.666667 0-59.733333l-59.733333-59.733333z" p-id="5626" fill="#e6e6e6"></path></svg>