<svg t="1619776382901" class="icon" viewBox="0 0 1024 1024" version="1.1" xmlns="http://www.w3.org/2000/svg" p-id="3075" width="200" height="200"><path d="M409.38666667 570.02666667c-72.42666667 0-131.30666667-58.88-131.30666667-131.30666667 0-72.42666667 58.88-131.30666667 131.30666667-131.30666667 72.42666667 0 131.30666667 58.88 131.30666666 131.30666667 0 72.42666667-58.98666667 131.30666667-131.30666666 131.30666667z m0-219.94666667c-48.85333333 0-88.64 39.78666667-88.64 88.64s39.78666667 88.64 88.64 88.64 88.64-39.78666667 88.64-88.64-39.78666667-88.64-88.64-88.64zM833.28 454.29333333H643.73333333c-11.73333333 0-21.33333333-9.6-21.33333333-21.33333333s9.6-21.33333333 21.33333333-21.33333333h189.54666667c11.73333333 0 21.33333333 9.6 21.33333333 21.33333333s-9.6 21.33333333-21.33333333 21.33333333zM833.28 556.37333333H643.84c-11.73333333 0-21.33333333-9.6-21.33333333-21.33333333s9.6-21.33333333 21.33333333-21.33333333h189.54666667c11.73333333 0 21.33333333 9.6 21.33333333 21.33333333-0.10666667 11.73333333-9.70666667 21.33333333-21.44 21.33333333z" p-id="3076"></path><path d="M726.72 685.22666667l-138.34666667 221.86666666c-6.18666667 9.92-19.41333333 13.01333333-29.44 6.82666667-9.92-6.18666667-13.01333333-19.41333333-6.82666666-29.44l138.34666666-221.86666667c6.18666667-9.92 19.41333333-13.01333333 29.44-6.82666666 10.02666667 6.18666667 13.01333333 19.41333333 6.82666667 29.44z" p-id="3077"></path><path d="M909.01333333 94.29333333H114.45333333c-18.77333333 0-34.13333333 15.36-34.13333333 34.13333334v766.82666666c0 18.77333333 15.36 34.13333333 34.13333333 34.13333334h71.36v-42.66666667h-62.82666666V136.96h777.49333333v749.76h-67.73333333v42.66666667h76.26666666c18.77333333 0 34.13333333-15.36 34.13333334-34.13333334V128.42666667c0-18.77333333-15.36-34.13333333-34.13333334-34.13333334z" p-id="3078"></path><path d="M276.58666667 755.73333333c0-68.16 55.46666667-123.52 123.52-123.52h17.70666666c68.16 0 123.52 55.46666667 123.52 123.52l0.96 152c0.53333333 11.2 9.81333333 20.05333333 20.8 20.26666667 11.30666667 0.21333333 21.01333333-8.74666667 21.54666667-20.26666667-0.21333333-50.66666667-0.42666667-101.33333333-0.74666667-152 0-91.62666667-74.56-166.18666667-166.18666666-166.18666666H400c-91.62666667 0-166.18666667 74.56-166.18666667 166.18666666 0.10666667 50.66666667 0.32 101.33333333 0.42666667 152-0.21333333 11.52 9.06666667 21.22666667 20.58666667 21.33333334 11.52 0.10666667 21.01333333-9.28 21.12-20.8l0.64-152.53333334z" p-id="3079"></path></svg>